<?xml version="1.0" encoding="UTF-8"?>
<svg width="60px" height="20px" viewBox="0 0 60 20" version="1.1" xmlns="http://www.w3.org/2000/svg" xmlns:xlink="http://www.w3.org/1999/xlink">
    <title>Posten</title>
    <defs></defs>
    <g id="Posten" stroke="none" stroke-width="1" fill="none" fill-rule="evenodd">
        <g id="Posten-Norge-Logo" fill-rule="nonzero">
            <path d="M36.1472058,10.7382642 C35.4267679,10.6944686 34.9554175,10.6944686 34.9844321,9.88479708 C34.9991912,9.41344672 35.120746,9.07567299 36.5484832,9.11946861 C37.5196511,9.14903066 37.8240307,9.35487007 37.8240307,10.0468409 L39.3546876,10.0468409 C39.3546876,8.33935912 38.3145416,7.80943212 36.5337022,7.78041752 C34.620381,7.75085547 33.3514029,8.14830073 33.3218409,9.92914015 C33.2774978,12.1369869 34.9258555,12.0778628 36.5298701,12.1660015 C37.3543226,12.2097971 37.8541401,12.2245781 37.8251255,13.0780453 C37.8103664,13.5937387 37.6417314,13.9172788 36.2139942,13.8734832 C35.0369869,13.8439212 34.8212934,13.5493956 34.8212934,12.9313299 L33.2895416,12.9313299 C33.2895416,14.6973883 34.4183737,15.1681912 36.2287752,15.1977533 C38.1568774,15.2273153 39.4439212,14.7712934 39.4734832,13.0046876 C39.5178263,10.7092496 37.7955635,10.8417314 36.1472058,10.7382642 Z M43.1769504,13.8439212 C42.3672788,13.8285927 42.2692861,13.4191036 42.2692861,12.8722058 L42.2692861,9.34665839 L45.5397241,9.34665839 L45.5397241,7.91125693 L42.2692861,7.91125693 L42.2692861,5.59008905 L40.6061474,5.59008905 L40.6061474,7.91125693 L39.6382642,7.91125693 L39.6382642,9.34665839 L40.6061474,9.34665839 L40.6061474,12.8722058 C40.6061474,14.4767679 41.5625343,15.1977533 43.2262204,15.1977533 C44.6534102,15.1977533 45.5594321,14.6535927 45.5594321,12.9313299 L44.0490307,12.9313299 C44.0320818,13.3895416 43.9274978,13.8581547 43.1769504,13.8439212 Z M56.7136292,7.78041752 C55.6981182,7.78041752 55.051038,8.10395766 54.6388117,8.47184088 L54.6388117,7.91125693 L53.1962934,7.91125693 L53.1962934,15.0800526 L54.8594321,15.0800526 L54.8594321,11.7389942 C54.8594321,10.4880818 54.7264029,9.25195036 56.5225708,9.25195036 C57.9645416,9.25195036 57.8320599,9.91435912 57.8320599,11.2977533 L57.8320599,15.0800526 L59.495746,15.0800526 L59.495746,11.1652715 C59.495746,9.60505255 59.6134467,7.78041752 56.7136292,7.78041752 Z M47.6222058,10.7678263 C47.6222058,9.81143942 47.7689212,9.14903066 49.2262204,9.14903066 C50.7716584,9.14903066 50.8592496,9.73808175 50.8592496,10.7678263 L47.6222058,10.7678263 Z M49.2262204,7.78041752 C46.3411839,7.78041752 45.9295051,9.42822774 45.9295051,11.5769504 C45.9295051,13.6670964 46.3860745,15.1977533 49.2700161,15.1977533 C50.6238482,15.1977533 52.4200161,14.8594321 52.4200161,12.9313299 L50.810527,12.9313299 C50.7962934,13.7410015 49.9318774,13.8291401 49.3291401,13.8291401 C47.9008555,13.8291401 47.5920964,13.3435562 47.5920964,12.1216584 L52.5081547,12.1216584 C52.5081547,9.62038102 52.360892,7.78041752 49.2262204,7.78041752 Z M29.4136292,13.7262204 C27.8090672,13.7262204 27.6623518,13.1081547 27.6623518,11.4888117 C27.6623518,9.87001606 27.8090672,9.25195036 29.4136292,9.25195036 C31.0176438,9.25195036 31.165454,9.87001606 31.165454,11.4888117 C31.165454,13.1081547 31.0176438,13.7262204 29.4136292,13.7262204 Z M29.4136292,7.78041752 C28.2508555,7.78041752 27.3826073,7.98625693 26.7645416,8.59008905 C26.1316949,9.19282628 25.9992131,10.1201985 25.9992131,11.4888117 C25.9992131,12.8579723 26.1316949,13.7847971 26.7645416,14.3880818 C27.3826073,14.9919139 28.2508555,15.1977533 29.4136292,15.1977533 C30.5616219,15.1977533 31.4446511,14.9919139 32.0632642,14.3880818 C32.6955635,13.7847971 32.8274978,12.8579723 32.8274978,11.4888117 C32.8274978,10.1201985 32.6955635,9.19282628 32.0632642,8.59008905 C31.4446511,7.98625693 30.5616219,7.78041752 29.4136292,7.78041752 Z M22.2338847,13.7262204 C20.8061474,13.7262204 20.4087022,13.2992131 20.4087022,11.5041401 C20.4087022,9.70797226 20.8061474,9.25195036 22.2338847,9.25195036 C23.4700161,9.25195036 23.7349796,9.82567299 23.7349796,11.5041401 C23.7349796,13.1815124 23.4700161,13.7262204 22.2338847,13.7262204 Z M22.4988482,7.78041752 C21.7329723,7.7656146 20.8652715,7.94191387 20.2614394,8.47184088 L20.2614394,7.91125693 L18.7603445,7.91125693 L18.7603445,17.4028628 L20.4234832,17.4028628 L20.4234832,14.5643591 C20.9090672,15.0800526 21.5271328,15.1977533 22.3072423,15.1977533 C25.0877168,15.1977533 25.3964759,13.2400891 25.3964759,11.5041401 C25.3964759,9.22238832 25.0581547,7.80943212 22.4988482,7.78041752 Z" id="path32" fill="#FF0000"></path>
            <g id="Group">
                <path d="M15.1130957,8.38680979 C14.9569772,10.3607042 13.3066552,11.9141606 11.2925719,11.9141606 C9.27848862,11.9141606 7.6281666,10.3607042 7.47204809,8.38680979 L0.412194075,8.38680979 C0.573465006,12.4793817 3.94006011,15.7480807 8.07230571,15.7480807 C12.2040361,15.7480807 15.5711464,12.4793817 15.7324173,8.38680979 L15.1130957,8.38680979 Z" id="path36" fill="#FF0000"></path>
                <path d="M7.47204809,7.77346501 C7.6281666,5.79957063 9.27848862,4.24611421 11.2925719,4.24611421 C13.3066552,4.24611421 14.9569772,5.79957063 15.1130957,7.77346501 L15.7324173,7.77346501 C15.5711464,3.68089309 12.2040361,0.412194075 8.07230571,0.412194075 C3.94006011,0.412194075 0.573465006,3.68089309 0.412194075,7.77346501 L7.47204809,7.77346501 Z" id="path40" fill="#BCBDBF"></path>
            </g>
        </g>
    </g>
</svg>